<?xml version="1.0" encoding="UTF-8"?>
<svg width="200" height="100" viewBox="0 0 850 265" version="1.1" xmlns="http://www.w3.org/2000/svg" xmlns:xlink="http://www.w3.org/1999/xlink">
    <!-- Generator: Sketch 59.1 (86144) - https://sketch.com -->
    <title>Combined Shape</title>
    <desc>Created with Sketch.</desc>
    <g id="Page-1" stroke="none" stroke-width="1" fill="none" fill-rule="evenodd">
        <path d="M121.195652,0.407608696 C122.5,0.108695652 124.375,0.027173913 128.26087,0.108695652 C133.097826,0.190217391 133.777174,0.244565217 135.978261,0.923913043 C142.527174,2.9076087 147.961957,6.71195652 151.956522,12.0652174 C157.255435,19.1576087 159.157609,28.9673913 156.956522,37.5 L156.956522,37.5 L156.603261,38.8858696 L159.076087,40.5434783 C181.548913,55.625 196.195652,79.7282609 199.293478,106.793478 C199.809783,111.059783 199.891304,122.065217 199.456522,126.38587 C197.826087,142.771739 191.657609,158.831522 181.956522,171.956522 C168.26087,190.461957 148.125,203.315217 125.896739,207.717391 C120.081522,208.88587 116.467391,209.266304 109.673913,209.429348 L109.673913,209.429348 L103.152174,209.592391 L60.3532609,234.456522 C36.7934783,248.125 16.25,260.054348 14.673913,261.005435 C9.89130435,263.864603 9.36015452,264.113226 6.92109091,264.129441 L6.92109091,264.129441 L6.30279114,264.129928 C4.3722261,264.122164 4.02528355,264.018195 2.9076087,263.342391 C2.22826087,262.880435 1.30434783,262.01087 0.89673913,261.38587 C0.244565217,260.407609 0.108695652,259.891304 0.0543478261,258.016304 C-0.027173913,256.059783 0.027173913,255.625 0.625,254.456522 C1.49456522,252.717391 1.98369565,252.309783 5.57065217,250.244565 C11.6847826,246.73913 15.3804348,243.88587 19.8097826,239.23913 C28.1521739,230.516304 33.3152174,219.293478 35.2445652,205.570652 C36.0597826,199.891304 35.7336957,185.570652 34.7554348,182.961957 C34.6467391,182.63587 33.5869565,181.222826 32.4184783,179.836957 C21.1684783,166.440217 13.6684783,150.13587 11.3043478,133.967391 C9.51086957,121.684783 10.298913,107.472826 13.4782609,94.701087 C15.326087,87.3369565 18.3967391,78.9673913 21.9021739,71.8478261 C25.298913,64.9184783 26.8206522,63.4782609 30.7065217,63.451087 C32.4456522,63.451087 32.9347826,63.5597826 34.048913,64.2119565 C37.2826087,66.1141304 38.423913,70.2173913 36.6032609,73.5597826 C33.2336957,79.6467391 31.0326087,84.6195652 29.076087,90.4891304 C21.4673913,113.342391 22.4456522,134.945652 31.9565217,154.076087 C35.4619565,161.11413 39.673913,167.391304 44.2934783,172.418478 C45.5163043,173.75 46.8206522,175.461957 47.1467391,176.222826 C47.8532609,177.717391 48.6956522,182.309783 49.2119565,187.309783 C49.701087,192.201087 49.4021739,203.75 48.6413043,208.559783 C47.6358696,215.163043 46.0597826,221.304348 44.1576087,225.978261 C43.6684783,227.228261 43.2880435,228.26087 43.3423913,228.26087 C43.5054348,228.26087 97.3913043,196.983696 97.6630435,196.73913 C97.7717391,196.603261 97.3369565,195.788043 96.6847826,194.918478 C92.9076087,189.972826 90.4891304,184.728261 88.6956522,177.798913 C86.4673913,169.103261 85.7336957,161.38587 86.1684783,151.521739 C86.3586957,146.657609 87.2826087,136.711957 87.6630435,135.163043 C87.7717391,134.701087 87.5271739,134.456522 86.0597826,133.75 C83.9673913,132.717391 82.0380435,130.733696 81.0326087,128.586957 C80.3804348,127.201087 80.298913,126.711957 80.298913,124.048913 L80.2991532,123.755819 C80.3037655,121.203693 80.3823758,120.922943 81.1684783,119.429348 C81.6304348,118.505435 82.5543478,117.255435 83.2065217,116.603261 C84.6467391,115.108696 87.3913043,113.804348 89.3206522,113.641304 C90.7065217,113.532609 90.7608696,113.505435 90.951087,112.527174 C91.0597826,111.983696 91.1413043,109.592391 91.1413043,107.201087 C91.1141304,103.858696 90.9782609,102.201087 90.5163043,100.081522 C89.0217391,92.9076087 86.0054348,87.1467391 81.3586957,82.4456522 L81.3586957,82.4456522 L79.048913,80.1358696 L78.1793478,80.7065217 C73.3152174,83.9673913 66.6576087,84.2663043 61.3315217,81.4673913 C59.0217391,80.2717391 56.0869565,77.2554348 54.8369565,74.8641304 C53.3152174,71.9565217 52.9076087,69.9728261 53.0706522,66.4402174 C53.2065217,63.0706522 53.8315217,60.9782609 55.5706522,58.2880435 C56.7663043,56.4130435 64.8097826,48.2880435 67.798913,45.923913 C75.8967391,39.5108696 85.5706522,35.326087 94.8641304,34.2119565 C97.4184783,33.9130435 97.5543478,33.8586957 97.3913043,33.3152174 C97.0652174,32.2826087 97.2282609,27.6358696 97.6630435,25.0815217 C98.7771739,18.8043478 101.331522,13.6956522 105.652174,9.18478261 C109.945652,4.70108696 115.13587,1.76630435 121.195652,0.407608696 Z M294.447266,67.6103516 C300.160185,67.6103516 305.344052,68.2451108 309.999023,69.5146484 C312.961278,70.3610068 316.452454,71.8209532 320.472656,73.8945312 C321.82683,74.7832076 322.90592,75.8411397 323.709961,77.0683594 C324.514001,78.2955791 325.00065,79.5227803 325.169922,80.75 C325.339194,81.9772197 325.318035,83.2255796 325.106445,84.4951172 C324.894856,85.7646548 324.418786,86.8754835 323.678223,87.8276367 C322.937659,88.7797899 322.080734,89.5838183 321.107422,90.2397461 C320.13411,90.8956739 318.959805,91.2236328 317.584473,91.2236328 C316.20914,91.2236328 314.780932,90.9274118 313.299805,90.3349609 C306.867481,87.5419782 301.027696,86.1455078 295.780273,86.1455078 C292.944973,86.1455078 290.458832,86.3359356 288.321777,86.7167969 C286.184722,87.0976582 284.015962,87.9122659 281.81543,89.1606445 C279.614898,90.4090232 277.826993,92.1017146 276.45166,94.2387695 C275.076328,96.3758245 273.94434,99.2957172 273.055664,102.998535 C272.166988,106.701353 271.722656,111.091771 271.722656,116.169922 C271.722656,125.860726 273.669251,133.234512 277.5625,138.291504 C281.455749,143.348495 287.253217,145.876953 294.955078,145.876953 C298.17124,145.876953 301.768209,145.347987 305.746094,144.290039 C309.723978,143.232091 313.299789,141.814462 316.473633,140.037109 C318.377939,139.021479 320.303376,139.106114 322.25,140.291016 C324.365896,141.560553 325.635415,143.48599 326.058594,146.067383 C326.651045,149.706724 325.16994,152.922838 321.615234,155.71582 C314.040327,161.513375 304.518938,164.412109 293.050781,164.412109 C286.745411,164.412109 280.84215,163.364757 275.34082,161.27002 C269.839491,159.175282 265.01532,156.170755 260.868164,152.256348 C256.721008,148.34194 253.451998,143.337921 251.061035,137.244141 C248.670073,131.15036 247.474609,124.337277 247.474609,116.804688 C247.474609,109.187462 248.670073,102.268586 251.061035,96.0478516 C253.451998,89.8271173 256.752746,84.6538292 260.963379,80.527832 C265.174012,76.4018348 270.135714,73.2174591 275.848633,70.9746094 C281.561552,68.7317596 287.761034,67.6103516 294.447266,67.6103516 Z M503.919922,73.5136719 C509.167344,73.5136719 511.791016,77.7877177 511.791016,86.3359375 L511.791016,86.3359375 L511.791016,97.6347656 L519.535156,97.6347656 C523.978538,97.6347656 526.200195,100.004534 526.200195,104.744141 C526.200195,107.071626 525.628912,108.796056 524.486328,109.91748 C523.343744,111.038905 521.566418,111.599609 519.154297,111.599609 L519.154297,111.599609 L511.791016,111.599609 L511.791016,134.197266 C511.791016,139.656277 512.425775,143.411936 513.695312,145.464355 C514.96485,147.516775 517.292301,148.458334 520.677734,148.289062 L520.677734,148.289062 L524.359375,148.098633 C525.544277,148.056315 526.59163,148.405432 527.501465,149.145996 C528.4113,149.88656 529.024901,150.828119 529.342285,151.970703 C529.65967,153.113287 529.797201,154.298171 529.754883,155.525391 C529.712565,156.75261 529.363447,157.884598 528.70752,158.921387 C528.051592,159.958176 527.173508,160.688149 526.073242,161.111328 C523.153306,162.253912 518.265659,162.825195 511.410156,162.825195 C505.062468,162.698242 500.164243,160.772805 496.715332,157.048828 C493.266422,153.324851 491.541992,147.167686 491.541992,138.577148 L491.541992,138.577148 L491.541992,111.599609 L487.669922,111.599609 C485.300118,111.599609 483.533372,111.028326 482.369629,109.885742 C481.205886,108.743158 480.624023,106.881198 480.624023,104.299805 C480.624023,99.8564231 482.887998,97.6347656 487.416016,97.6347656 L487.416016,97.6347656 L492.875,97.6347656 L494.271484,85.2568359 C495.033207,77.4280208 498.249321,73.5136719 503.919922,73.5136719 Z M821.9375,96.9365234 C826.126974,96.9365234 829.850895,97.4125929 833.109375,98.3647461 C836.367855,99.3168993 839.266589,100.840322 841.805664,102.935059 C844.344739,105.029796 846.280755,107.886212 847.61377,111.504395 C848.946784,115.122577 849.613281,119.470678 849.613281,124.548828 L849.613281,124.548828 L849.613281,151.65332 C849.613281,154.319349 848.999681,156.562165 847.772461,158.381836 C846.545241,160.201506 845.053557,161.322915 843.297363,161.746094 C841.54117,162.169273 839.795582,162.158694 838.060547,161.714355 C836.325512,161.270017 834.844407,160.127451 833.617188,158.286621 C832.389968,156.445792 831.776367,154.171237 831.776367,151.462891 L831.776367,151.462891 L831.776367,150.383789 C828.941067,158.720419 822.127984,162.846355 811.336914,162.761719 C805.285452,162.677083 800.313171,160.952654 796.419922,157.588379 C792.526673,154.224104 790.580078,149.897162 790.580078,144.607422 C790.580078,136.736289 793.574026,131.351414 799.562012,128.452637 C805.549997,125.553859 816.055263,124.104492 831.078125,124.104492 L831.078125,124.104492 L831.078125,120.105469 C831.078125,113.588509 827.629266,110.330078 820.731445,110.330078 C815.695613,110.330078 809.580765,111.8535 802.386719,114.900391 C800.143869,115.831385 798.165536,115.461109 796.45166,113.789551 C794.737784,112.117993 793.944335,110.012708 794.071289,107.473633 C794.198243,104.934558 795.404285,103.093756 797.689453,101.951172 C800.60939,100.554681 804.354469,99.3697965 808.924805,98.3964844 C813.49514,97.4231722 817.832662,96.9365234 821.9375,96.9365234 Z M444.251953,96.9365234 C448.441427,96.9365234 452.165348,97.4125929 455.423828,98.3647461 C458.682308,99.3168993 461.581042,100.840322 464.120117,102.935059 C466.659192,105.029796 468.595208,107.886212 469.928223,111.504395 C471.261237,115.122577 471.927734,119.470678 471.927734,124.548828 L471.927734,124.548828 L471.927734,151.65332 C471.927734,154.319349 471.314134,156.562165 470.086914,158.381836 C468.859694,160.201506 467.36801,161.322915 465.611816,161.746094 C463.855623,162.169273 462.110035,162.158694 460.375,161.714355 C458.639965,161.270017 457.15886,160.127451 455.931641,158.286621 C454.704421,156.445792 454.09082,154.171237 454.09082,151.462891 L454.09082,151.462891 L454.09082,150.383789 C451.25552,158.720419 444.442437,162.846355 433.651367,162.761719 C427.599905,162.677083 422.627624,160.952654 418.734375,157.588379 C414.841126,154.224104 412.894531,149.897162 412.894531,144.607422 C412.894531,136.736289 415.888479,131.351414 421.876465,128.452637 C427.864451,125.553859 438.369717,124.104492 453.392578,124.104492 L453.392578,124.104492 L453.392578,120.105469 C453.392578,113.588509 449.943719,110.330078 443.045898,110.330078 C438.010066,110.330078 431.895218,111.8535 424.701172,114.900391 C422.458322,115.831385 420.479989,115.461109 418.766113,113.789551 C417.052238,112.117993 416.258788,110.012708 416.385742,107.473633 C416.512696,104.934558 417.718739,103.093756 420.003906,101.951172 C422.923843,100.554681 426.668922,99.3697965 431.239258,98.3964844 C435.809593,97.4231722 440.147115,96.9365234 444.251953,96.9365234 Z M571.078125,96.8095703 C575.225281,96.8095703 579.097313,97.3702743 582.694336,98.4916992 C586.291359,99.6131241 589.105459,101.062491 591.136719,102.839844 C592.448574,103.94011 593.347817,105.262525 593.834473,106.807129 C594.321129,108.351733 594.395184,109.790521 594.056641,111.123535 C593.718097,112.45655 593.125655,113.662592 592.279297,114.741699 C591.432938,115.820806 590.32211,116.455565 588.946777,116.645996 C587.571445,116.836427 586.122078,116.550785 584.598633,115.789062 C580.409159,113.630849 576.515969,112.657551 572.918945,112.869141 C568.306292,113.123048 564.667006,114.604153 562.000977,117.3125 C559.334948,120.020847 558.001953,124.146782 558.001953,129.69043 C558.001953,132.695002 558.488602,135.424467 559.461914,137.878906 C560.435226,140.333346 562.0856,142.385734 564.413086,144.036133 C566.740572,145.686532 569.596988,146.511719 572.982422,146.511719 C577.002624,146.511719 581.001608,145.496104 584.979492,143.464844 C586.502937,142.745439 587.952304,142.502115 589.327637,142.734863 C590.702969,142.967612 591.813798,143.665847 592.660156,144.82959 C593.506515,145.993333 594.109536,147.273431 594.469238,148.669922 C594.828941,150.066413 594.754885,151.558098 594.24707,153.14502 C593.739255,154.731942 592.808275,156.075515 591.454102,157.175781 C589.422841,158.868498 586.460631,160.222651 582.567383,161.238281 C578.674134,162.253911 574.611675,162.761719 570.379883,162.761719 C566.063455,162.761719 561.969258,162.095222 558.097168,160.762207 C554.225078,159.429193 550.712744,157.461439 547.560059,154.858887 C544.407374,152.256335 541.900074,148.796897 540.038086,144.480469 C538.176097,140.164041 537.245117,135.255236 537.245117,129.753906 C537.245117,123.406218 538.726222,117.714543 541.688477,112.678711 C544.650731,107.642878 548.702611,103.739109 553.844238,100.967285 C558.985866,98.1954614 564.730437,96.8095703 571.078125,96.8095703 Z M347.132813,69.6416016 C354.115269,69.6416016 357.606445,74.1695511 357.606445,83.2255859 L357.606445,83.2255859 L357.606445,107.600586 C362.092145,99.7294528 369.688098,96.0690077 380.394531,96.6191406 C383.187514,96.7884123 385.811186,97.4020129 388.265625,98.4599609 C390.720064,99.5179089 392.920563,101.009593 394.867188,102.935059 C396.813812,104.860524 398.358393,107.336085 399.500977,110.361816 C400.64356,113.387548 401.214844,116.78351 401.214844,120.549805 L401.214844,120.549805 L401.151367,148.416016 C401.151367,152.944033 400.357918,156.339995 398.770996,158.604004 C397.184074,160.868013 394.59214,162 390.995117,162 C384.308886,162 380.96582,157.47205 380.96582,148.416016 L380.96582,148.416016 L380.96582,121.692383 C380.96582,118.010724 380.013681,115.143728 378.109375,113.091309 C376.205069,111.038889 373.729507,110.012695 370.682617,110.012695 C367.085594,110.012695 364.017591,111.34569 361.478516,114.011719 C358.93944,116.677748 357.669922,120.147765 357.669922,124.421875 L357.669922,124.421875 L357.669922,148.416016 C357.669922,152.944033 356.876473,156.339995 355.289551,158.604004 C353.702629,160.868013 351.110695,162 347.513672,162 C340.827441,162 337.484375,157.47205 337.484375,148.416016 L337.484375,148.416016 L337.420898,83.2255859 C337.420898,78.7398864 338.18261,75.3545036 339.706055,73.0693359 C341.2295,70.7841683 343.705061,69.6416016 347.132813,69.6416016 Z M615.511719,69.6416016 C622.494176,69.6416016 625.985352,74.1695511 625.985352,83.2255859 L625.985352,83.2255859 L625.985352,107.600586 C630.471051,99.7294528 638.067004,96.0690077 648.773438,96.6191406 C651.56642,96.7884123 654.190092,97.4020129 656.644531,98.4599609 C659.098971,99.5179089 661.299469,101.009593 663.246094,102.935059 C665.192718,104.860524 666.737299,107.336085 667.879883,110.361816 C669.022467,113.387548 669.59375,116.78351 669.59375,120.549805 L669.59375,120.549805 L669.530273,148.416016 C669.530273,152.944033 668.736824,156.339995 667.149902,158.604004 C665.56298,160.868013 662.971047,162 659.374023,162 C652.687792,162 649.344727,157.47205 649.344727,148.416016 L649.344727,148.416016 L649.344727,121.692383 C649.344727,118.010724 648.392588,115.143728 646.488281,113.091309 C644.583975,111.038889 642.108414,110.012695 639.061523,110.012695 C635.4645,110.012695 632.396497,111.34569 629.857422,114.011719 C627.318347,116.677748 626.048828,120.147765 626.048828,124.421875 L626.048828,124.421875 L626.048828,148.416016 C626.048828,152.944033 625.255379,156.339995 623.668457,158.604004 C622.081535,160.868013 619.489601,162 615.892578,162 C609.206347,162 605.863281,157.47205 605.863281,148.416016 L605.863281,148.416016 L605.799805,83.2255859 C605.799805,78.7398864 606.561516,75.3545036 608.084961,73.0693359 C609.608406,70.7841683 612.083967,69.6416016 615.511719,69.6416016 Z M695.174805,98.0791016 C698.814146,98.0791016 701.469555,99.2110889 703.141113,101.475098 C704.812671,103.739106 705.648438,107.11391 705.648438,111.599609 L705.648438,111.599609 L705.648438,148.479492 C705.648438,153.049828 704.907885,156.44579 703.426758,158.66748 C701.945631,160.889171 699.406594,162 695.80957,162 C692.127911,162 689.49366,160.878592 687.906738,158.635742 C686.319816,156.392892 685.526367,153.00751 685.526367,148.479492 L685.526367,148.479492 L685.526367,111.599609 C685.526367,107.11391 686.277499,103.739106 687.779785,101.475098 C689.282071,99.2110889 691.747053,98.0791016 695.174805,98.0791016 Z M731.737305,69.7050781 C735.376646,69.7050781 738.032055,70.8370655 739.703613,73.1010742 C741.375171,75.3650829 742.210938,78.7398864 742.210938,83.2255859 L742.210938,83.2255859 L742.210938,148.479492 C742.210938,152.965192 741.375171,156.339995 739.703613,158.604004 C738.032055,160.868013 735.376646,162 731.737305,162 C728.309553,162 725.844571,160.868013 724.342285,158.604004 C722.839999,156.339995 722.088867,152.965192 722.088867,148.479492 L722.088867,148.479492 L722.088867,83.2255859 C722.088867,78.7398864 722.839999,75.3650829 724.342285,73.1010742 C725.844571,70.8370655 728.309553,69.7050781 731.737305,69.7050781 Z M768.172852,69.7050781 C771.812193,69.7050781 774.467602,70.8370655 776.13916,73.1010742 C777.810718,75.3650829 778.646484,78.7398864 778.646484,83.2255859 L778.646484,83.2255859 L778.646484,148.479492 C778.646484,152.965192 777.810718,156.339995 776.13916,158.604004 C774.467602,160.868013 771.812193,162 768.172852,162 C764.7451,162 762.280118,160.868013 760.777832,158.604004 C759.275546,156.339995 758.524414,152.965192 758.524414,148.479492 L758.524414,148.479492 L758.524414,83.2255859 C758.524414,78.7398864 759.275546,75.3650829 760.777832,73.1010742 C762.280118,70.8370655 764.7451,69.7050781 768.172852,69.7050781 Z M453.329102,133.118164 C450.874662,133.118164 448.832853,133.139323 447.203613,133.181641 C445.574373,133.223959 443.839365,133.319172 441.998535,133.467285 C440.157706,133.615398 438.666021,133.826984 437.523438,134.102051 C436.380854,134.377117 435.248866,134.757973 434.127441,135.244629 C433.006017,135.731285 432.149092,136.323727 431.556641,137.021973 C430.96419,137.720218 430.48812,138.566564 430.128418,139.561035 C429.768716,140.555506 429.610026,141.708652 429.652344,143.020508 C429.73698,145.305675 430.466953,147.209953 431.842285,148.733398 C433.217618,150.256844 435.153633,151.124348 437.650391,151.335938 C441.416685,151.674481 444.971337,150.309748 448.314453,147.241699 C451.657569,144.17365 453.329102,140.312198 453.329102,135.657227 L453.329102,135.657227 Z M831.014648,133.118164 C828.560209,133.118164 826.5184,133.139323 824.88916,133.181641 C823.25992,133.223959 821.524912,133.319172 819.684082,133.467285 C817.843253,133.615398 816.351568,133.826984 815.208984,134.102051 C814.066401,134.377117 812.934413,134.757973 811.812988,135.244629 C810.691563,135.731285 809.834638,136.323727 809.242188,137.021973 C808.649737,137.720218 808.173667,138.566564 807.813965,139.561035 C807.454263,140.555506 807.295573,141.708652 807.337891,143.020508 C807.422526,145.305675 808.1525,147.209953 809.527832,148.733398 C810.903164,150.256844 812.83918,151.124348 815.335938,151.335938 C819.102232,151.674481 822.656884,150.309748 826,147.241699 C829.343116,144.17365 831.014648,140.312198 831.014648,135.657227 L831.014648,135.657227 Z M54.9456522,114.103261 C57.0652174,113.315217 60.9782609,113.478261 63.0434783,114.456522 C65.3532609,115.516304 66.9565217,117.119565 68.125,119.51087 C69.1032609,121.467391 69.1576087,121.711957 69.1576087,124.157609 C69.1576087,126.440217 69.048913,126.983696 68.3967391,128.369565 C66.3586957,132.771739 62.6358696,135 57.8804348,134.728261 C52.9076087,134.429348 48.8858696,130.788043 48.0978261,125.869565 C47.2554348,120.788043 50.1358696,115.896739 54.9456522,114.103261 Z M128.070652,114.782609 C126.168478,113.88587 122.63587,113.61413 120.733696,114.23913 C114.809783,116.168478 111.766304,122.744565 114.293478,128.233696 C117.336957,134.891304 125.434783,136.576087 130.733696,131.630435 C132.527174,129.918478 133.342391,128.478261 133.831522,126.168478 C134.782609,121.603261 132.391304,116.847826 128.070652,114.782609 Z M95.2717391,114.945652 C93.3423913,113.994565 91.0326087,113.559783 91.0326087,114.157609 C91.0326087,114.375 90.3532609,118.940217 89.5380435,124.320652 C88.75,129.701087 88.125,134.157609 88.2065217,134.211957 C88.2880435,134.293478 89.1304348,134.402174 90.0815217,134.456522 C96.25,134.86413 101.521739,129.483696 101.005435,123.315217 C100.706522,119.755435 98.5054348,116.521739 95.2717391,114.945652 Z M695.682617,65.1347656 C698.983415,65.1347656 701.628245,66.0551666 703.617188,67.8959961 C705.60613,69.7368256 706.600586,72.1594902 706.600586,75.1640625 C706.600586,78.2109527 705.59555,80.6653553 703.585449,82.5273438 C701.575348,84.3893322 698.919938,85.3203125 695.619141,85.3203125 C692.360661,85.3203125 689.71583,84.3893322 687.68457,82.5273438 C685.65331,80.6653553 684.637695,78.2109527 684.637695,75.1640625 C684.637695,72.1594902 685.65331,69.7368256 687.68457,67.8959961 C689.71583,66.0551666 692.381819,65.1347656 695.682617,65.1347656 Z M90.2717391,45 C87.4456522,44.0217391 84.673913,44.7282609 82.5543478,46.9293478 C78.2065217,51.4402174 80.9782609,58.8586957 87.2282609,59.4293478 C89.2119565,59.6195652 91.1141304,58.9945652 92.6358696,57.7173913 C96.1413043,54.701087 96.1413043,49.375 92.6358696,46.3858696 C92.0108696,45.8423913 90.951087,45.2173913 90.2717391,45 Z" id="Combined-Shape" fill="#FFFFFF" fill-rule="nonzero"></path>
    </g>
</svg>